{"title":"Kick Ass 2 2013 V2 CAM XViD UNiQUE","uid":8829317,"size":750696448,"categoryP":"video","categoryS":"movies","magnet":"?xt=urn:btih:f7b90ba506df995e293c29f7fe87898c4b8ba04e&amp;dn=Kick+Ass+2+2013+V2+CAM+XViD+UNiQUE&amp;tr=udp%3A%2F%2Ftracker.openbittorrent.com%3A80&amp;tr=udp%3A%2F%2Fopen.demonii.com%3A1337&amp;tr=udp%3A%2F%2Ftracker.coppersurfer.tk%3A6969&amp;tr=udp%3A%2F%2Fexodus.desync.com%3A6969","seeders":1,"leechers":0,"uploader":"TeX","files":2,"time":1376924340,"description":"Format : AVI\nFormat/Info : Audio Video Interleave\nFile size : 711 MiB\nDuration : 1h 40mn\nOverall bit rate : 991 Kbps\nWriting application : VirtualDubMod 1.5.10.2 (build 2540/release)\nWriting library : VirtualDubMod build 2540/release\n\nVideo\nID : 0\nFormat : MPEG-4 Visual\nFormat profile : Advanced Simple@L5\nFormat settings, BVOP : 2\nFormat settings, QPel : No\nFormat settings, GMC : No warppoints\nFormat settings, Matrix : Default (H.263)\nMuxing mode : Packed bitstream\nCodec ID : XVID\nCodec ID/Hint : XviD\nDuration : 1h 40mn\nBit rate : 853 Kbps\nWidth : 638 pixels\nHeight : 318 pixels\nDisplay aspect ratio : 2.006\nFrame rate : 24.000 fps\nColor space : YUV\nChroma subsampling : 4:2:0\nBit depth : 8 bits\nScan type : Progressive\nCompression mode : Lossy\nBits/(Pixel*Frame) : 0.175\nStream size : 612 MiB (86%)\nWriting library : XviD 64\n\nAudio\nID : 1\nFormat : MPEG Audio\nFormat version : Version 1\nFormat profile : Layer 3\nCodec ID : 55\nCodec ID/Hint : MP3\nDuration : 1h 40mn\nBit rate mode : Constant\nBit rate : 128 Kbps\nChannel(s) : 2 channels\nSampling rate : 44.1 KHz\nCompression mode : Lossy\nStream size : 91.9 MiB (13%)\nAlignment : Split accross interleaves\nInterleave, duration : 42 ms (1.00 video frame)\nInterleave, preload duration : 500 ms\n\n","torrent":{"xt":"urn:btih:f7b90ba506df995e293c29f7fe87898c4b8ba04e","amp;dn":"Kick+Ass+2+2013+V2+CAM+XViD+UNiQUE","amp;tr":["udp%3A%2F%2Ftracker.openbittorrent.com%3A80","udp%3A%2F%2Fopen.demonii.com%3A1337","udp%3A%2F%2Ftracker.coppersurfer.tk%3A6969","udp%3A%2F%2Fexodus.desync.com%3A6969"],"infoHash":"f7b90ba506df995e293c29f7fe87898c4b8ba04e","infoHashBuffer":{"type":"Buffer","data":[247,185,11,165,6,223,153,94,41,60,41,247,254,135,137,140,75,139,160,78]},"announce":[],"urlList":[]}}